<?xml version="1.0" encoding="UTF-8" standalone="no"?>
<!DOCTYPE svg PUBLIC "-//W3C//DTD SVG 1.1//EN" "http://www.w3.org/Graphics/SVG/1.1/DTD/svg11.dtd">
<svg width="200px" height="200px" viewBox="0 0 2048 2048" version="1.1" xmlns="http://www.w3.org/2000/svg" xmlns:xlink="http://www.w3.org/1999/xlink" xml:space="preserve" xmlns:serif="http://www.serif.com/" style="fill-rule:evenodd;clip-rule:evenodd;stroke-linejoin:round;stroke-miterlimit:2;">
    <rect id="ArtBoard1" x="0" y="0" width="2048" height="2048" style="fill:none;"/>
    <g id="ArtBoard11" serif:id="ArtBoard1">
        <g transform="matrix(2.06352,0,0,2.06352,-1089.05,-1111.7)">
            <g transform="matrix(0.707107,-0.707107,0.707107,0.707107,-494.587,1079.27)">
                <g transform="matrix(1,0,0,1,72.1807,-48.6069)">
                    <path d="M1222.78,1066.3C1236.47,1162.59 1250.17,1258.88 1263.87,1355.17C1275.47,1436.74 1218.7,1495.16 1137.96,1486.07C1039.09,1474.95 940.22,1463.83 841.349,1452.71C758.969,1443.44 684.803,1368.79 676.444,1286.32C666.549,1188.67 656.653,1091.04 646.757,993.395C638.755,914.439 696.401,858.402 776.157,868.865C871.227,881.337 966.297,893.81 1061.37,906.282C1139.59,916.543 1211.66,988.157 1222.78,1066.3Z" style="fill:rgb(4,14,154);"/>
                </g>
            </g>
            <g transform="matrix(0.707107,-0.707107,0.707107,0.707107,-499.444,992.428)">
                <g transform="matrix(1,0,0,1,72.1807,-48.6069)">
                    <path d="M1222.78,1066.3C1236.47,1162.59 1250.17,1258.88 1263.87,1355.17C1275.47,1436.74 1218.7,1495.16 1137.96,1486.07C1039.09,1474.95 940.22,1463.83 841.349,1452.71C758.969,1443.44 684.803,1368.79 676.444,1286.32C666.549,1188.67 656.653,1091.04 646.757,993.395C638.755,914.439 696.401,858.402 776.157,868.865C871.227,881.337 966.297,893.81 1061.37,906.282C1139.59,916.543 1211.66,988.157 1222.78,1066.3Z" style="fill:rgb(4,16,190);"/>
                </g>
            </g>
            <g transform="matrix(0.707107,-0.707107,0.707107,0.707107,-499.444,905.498)">
                <g transform="matrix(1,0,0,1,72.1807,-48.6069)">
                    <path d="M1222.78,1066.3C1236.47,1162.59 1250.17,1258.88 1263.87,1355.17C1275.47,1436.74 1218.7,1495.16 1137.96,1486.07C1039.09,1474.95 940.22,1463.83 841.349,1452.71C758.969,1443.44 684.803,1368.79 676.444,1286.32C666.549,1188.67 656.653,1091.04 646.757,993.395C638.755,914.439 696.401,858.402 776.157,868.865C871.227,881.337 966.297,893.81 1061.37,906.282C1139.59,916.543 1211.66,988.157 1222.78,1066.3Z" style="fill:rgb(0,14,229);"/>
                </g>
            </g>
            <g transform="matrix(0.707107,-0.707107,0.707107,0.707107,-497.015,819.664)">
                <g transform="matrix(1,0,0,1,72.1807,-48.6069)">
                    <path d="M1222.78,1066.3C1236.47,1162.59 1250.17,1258.88 1263.87,1355.17C1275.47,1436.74 1218.7,1495.16 1137.96,1486.07C1039.09,1474.95 940.22,1463.83 841.349,1452.71C758.969,1443.44 684.803,1368.79 676.444,1286.32C666.549,1188.67 656.653,1091.04 646.757,993.395C638.755,914.439 696.401,858.402 776.157,868.865C871.227,881.337 966.297,893.81 1061.37,906.282C1139.59,916.543 1211.66,988.157 1222.78,1066.3Z" style="fill:rgb(0,16,255);"/>
                </g>
            </g>
            <g id="wifi-svgrepo-com.svg" transform="matrix(0.322631,-0.28099,0.335092,0.275511,1021.57,871.128)">
                <g transform="matrix(1,0,0,1,-400,-400)">
                    <clipPath id="_clip1">
                        <rect x="0" y="0" width="800" height="800"/>
                    </clipPath>
                    <g clip-path="url(#_clip1)">
                        <g>
                            <path d="M153.806,286.549C153.806,220.549 179.509,158.499 226.176,111.835C234.516,103.495 234.516,89.973 226.176,81.631C217.836,73.296 204.317,73.294 195.972,81.631C141.238,136.366 111.092,209.141 111.092,286.552C111.092,363.959 141.238,436.735 195.972,491.47C200.145,495.64 205.609,497.725 211.074,497.725C216.541,497.725 222.006,495.64 226.176,491.47C234.516,483.127 234.516,469.606 226.176,461.266C179.509,414.596 153.806,352.547 153.806,286.549Z" style="fill:white;fill-rule:nonzero;"/>
                            <path d="M47.206,286.549C47.206,192.075 83.996,103.26 150.803,36.456C159.143,28.116 159.143,14.595 150.803,6.252C142.463,-2.082 128.944,-2.085 120.599,6.252C45.727,81.124 4.493,180.667 4.493,286.549C4.493,392.43 45.727,491.974 120.599,566.84C124.769,571.008 130.231,573.095 135.698,573.095C141.163,573.095 146.63,571.01 150.8,566.838C159.14,558.498 159.14,544.976 150.797,536.637C83.999,469.841 47.206,381.023 47.206,286.549Z" style="fill:white;fill-rule:nonzero;"/>
                            <path d="M296.84,152.292C288.503,143.953 274.982,143.953 266.639,152.29C230.773,188.153 211.023,235.832 211.023,286.549C211.023,337.266 230.773,384.945 266.639,420.808C270.806,424.975 276.274,427.063 281.738,427.063C287.206,427.063 292.67,424.978 296.84,420.805C305.18,412.466 305.18,398.944 296.838,390.604C269.044,362.811 253.737,325.859 253.737,286.549C253.737,247.239 269.044,210.289 296.838,182.493C305.18,174.156 305.18,160.632 296.84,152.292Z" style="fill:white;fill-rule:nonzero;"/>
                            <path d="M604.028,81.631C595.685,73.294 582.166,73.294 573.824,81.631C565.484,89.973 565.484,103.495 573.824,111.835C620.491,158.499 646.194,220.551 646.194,286.549C646.194,352.547 620.491,414.596 573.824,461.261C565.484,469.6 565.484,483.122 573.824,491.464C577.997,495.634 583.459,497.719 588.926,497.719C594.391,497.719 599.858,495.634 604.028,491.464C658.762,436.73 688.908,363.954 688.908,286.546C688.908,209.139 658.762,136.366 604.028,81.631Z" style="fill:white;fill-rule:nonzero;"/>
                            <path d="M679.404,6.252C671.061,-2.085 657.542,-2.085 649.2,6.252C640.86,14.595 640.86,28.119 649.2,36.456C716.004,103.257 752.796,192.075 752.796,286.549C752.796,381.023 716.007,469.838 649.203,536.637C640.86,544.976 640.86,558.498 649.2,566.838C653.373,571.01 658.835,573.095 664.302,573.095C669.767,573.095 675.234,571.01 679.401,566.84C754.273,491.974 795.507,392.43 795.507,286.549C795.507,180.667 754.275,81.124 679.404,6.252Z" style="fill:white;fill-rule:nonzero;"/>
                            <path d="M533.364,152.29C525.024,143.95 511.5,143.953 503.16,152.292C494.82,160.632 494.82,174.154 503.162,182.493C530.956,210.287 546.266,247.239 546.266,286.549C546.266,325.859 530.958,362.809 503.162,390.604C494.82,398.944 494.82,412.466 503.16,420.805C507.332,424.978 512.794,427.063 518.262,427.063C523.726,427.063 529.194,424.978 533.361,420.808C569.227,384.945 588.977,337.266 588.977,286.549C588.979,235.832 569.227,188.153 533.364,152.29Z" style="fill:white;fill-rule:nonzero;"/>
                            <path d="M446.188,241.251C433.852,228.915 417.447,222.121 400.001,222.121C382.558,222.121 366.154,228.915 353.809,241.254C328.344,266.722 327.898,308.162 353.369,333.633C357.64,337.901 361.735,341.486 367.075,344.375L367.075,767.968C367.075,785.659 381.418,800.003 399.11,800.003C416.801,800.003 431.145,785.659 431.145,767.968L431.145,344.375C436.484,341.486 441.473,337.896 445.739,333.63C471.21,308.159 471.653,266.722 446.188,241.251Z" style="fill:white;fill-rule:nonzero;"/>
                        </g>
                    </g>
                </g>
            </g>
        </g>
    </g>
</svg>
